<svg xmlns="http://www.w3.org/2000/svg" width="16" height="28.997" viewBox="0 0 16 28.997">
    <g>
        <g>
            <g>
                <path d="M194.937 57.589l-1.3-1.3-3.1-3.1q-1.877-1.877-3.755-3.751L183.54 46.2c-.525-.525-1.043-1.058-1.577-1.577l-.021-.021v2.128l1.3-1.3 3.1-3.1 3.751-3.751 3.242-3.242c.525-.525 1.055-1.046 1.577-1.577l.021-.021a1.514 1.514 0 0 0 0-2.135 1.519 1.519 0 0 0-1.068-.44 1.584 1.584 0 0 0-1.068.44l-1.3 1.3L188.4 36l-3.751 3.751L181.405 43c-.525.525-1.055 1.046-1.577 1.577l-.021.021a1.531 1.531 0 0 0 0 2.132l1.3 1.3 3.1 3.1 3.751 3.751 3.242 3.239c.525.525 1.046 1.055 1.577 1.577l.021.021a1.514 1.514 0 0 0 2.135 0 1.519 1.519 0 0 0 .44-1.068 1.563 1.563 0 0 0-.437-1.062z" transform="translate(-8.064 -44.162) translate(8.064 44.162) translate(-179.375 -31.162)"/>
            </g>
        </g>
    </g>
</svg>
