<svg xmlns="http://www.w3.org/2000/svg" width="56" height="49.674" viewBox="0 0 56 49.674">
    <defs>
        <style>
            .cls-1{fill:#333}
        </style>
    </defs>
    <g id="family-icon" transform="translate(-9.058 -36.954)">
        <g id="Grupo_308" transform="translate(9.058 36.954)">
            <path id="Trazado_384" d="M58.48 67.077l-4.5-1.021v-1.874a8.931 8.931 0 0 0 5.156-6.374 3.018 3.018 0 0 0 1.756-5.121v-6.925a7.814 7.814 0 0 0-7.8-7.8v.023a2.8 2.8 0 0 0-2.163-1.027h-.043a10.844 10.844 0 0 0-7.694 3.219 11.126 11.126 0 0 0-3.31 7.923v4.627a3.012 3.012 0 0 0-.449 3.577 9.344 9.344 0 0 0-2.434-.309 9.057 9.057 0 0 0-4.3 1.121V55.99a7.867 7.867 0 0 0-5.522-7.534l-.341 1.081a6.737 6.737 0 0 1 4.729 6.453v1.857a9.374 9.374 0 0 0-3.631 6.2 7.575 7.575 0 0 1-11.745-6.324v-1.442a6.454 6.454 0 0 1 3.679-5.814l.063-.029a7.588 7.588 0 0 0 4.4-6.873v-.97h-1.144v.97a6.451 6.451 0 0 1-3.674 5.813l-.067.031a7.591 7.591 0 0 0-4.4 6.873v8.833a12.046 12.046 0 0 0 .534 3.547 7.6 7.6 0 0 0-4.08 3.613 5.769 5.769 0 0 1 .919-8.209 3.348 3.348 0 0 0 1.3-2.652V49.8a10.022 10.022 0 0 1 17.1-7.143 10.178 10.178 0 0 1 3.044 7.27v4.922H35v-4.923a11.3 11.3 0 0 0-3.379-8.075A11.17 11.17 0 0 0 12.583 49.8v11.612a2.221 2.221 0 0 1-.863 1.758 6.905 6.905 0 0 0-.708 10.261 7.572 7.572 0 0 0-.375 2.36v10.836h13.91v-1.133H11.771v-9.7a6.483 6.483 0 0 1 5.051-6.324l4.869-1.1v-2.179a8.763 8.763 0 0 0 4.2-.018v2.192l1.949.442v2.718a4.337 4.337 0 0 0 4.332 4.332h.158v-1.134h-.158a3.2 3.2 0 0 1-3.2-3.2v-6.2A8.165 8.165 0 0 1 37 57.126a8.089 8.089 0 0 1 8.15 8.088v6.31a3.2 3.2 0 0 1-3.2 3.2v1.134a4.337 4.337 0 0 0 4.332-4.332v-4.17l.608-.138v5.164a.761.761 0 0 0 1.363.465l2.181-3.036 2.169 3.02.012.016a.761.761 0 0 0 1.363-.465v-5.164l4.254.965a7.272 7.272 0 0 1 5.695 7.13v10.181h-4.821v-9.475h-1.134v9.474H48.86v1.134h16.2V75.312a8.444 8.444 0 0 0-6.578-8.236zM17.6 63.886c.032.032.065.061.1.092v1.1a12.052 12.052 0 0 0 .366 2.943l-1.392.315a10.915 10.915 0 0 1-.488-3.228v-3.081a8.755 8.755 0 0 0 1.414 1.859zm2.962 3.573l-1.393.316a10.908 10.908 0 0 1-.338-2.692v-.174a8.632 8.632 0 0 0 1.732.923zm6.463 0V65.8a8.647 8.647 0 0 0 .815-.382v2.222zm32.269-10.84c.013-.2.022-.4.022-.6v-.236a2.424 2.424 0 0 0 1.308-1.162 1.88 1.88 0 0 1-1.331 2zm.464-10.857v7.756a1.276 1.276 0 0 1-.442.965v-.632a4.7 4.7 0 0 0-.818-2.656 3.573 3.573 0 0 1-.62-2.015v-1.174a3.225 3.225 0 0 0-3.218-3.222l-1.3-.01a6.562 6.562 0 0 0 .37-2.18v-2.835a2.8 2.8 0 0 0-.075-.642 6.679 6.679 0 0 1 6.098 6.646zM41.005 48.1a10 10 0 0 1 2.976-7.12 9.719 9.719 0 0 1 6.9-2.888h.04a1.674 1.674 0 0 1 1.669 1.671v2.835a5.475 5.475 0 0 1-5.479 5.479 5.626 5.626 0 0 0-5.63 5.623v.685a1.518 1.518 0 0 1-.476-1.108V48.1zm-.819 6.435a2.642 2.642 0 0 0 1.295 1.186v.3c0 .2.007.4.021.6a1.889 1.889 0 0 1-1.34-1.8 1.868 1.868 0 0 1 .025-.289zm2.7 3.54a7.774 7.774 0 0 1-.276-2.056V53.7a4.493 4.493 0 0 1 4.492-4.491 6.586 6.586 0 0 0 5.725-3.3l1.819.013a2.091 2.091 0 0 1 2.089 2.089v1.175a4.709 4.709 0 0 0 .817 2.653 3.571 3.571 0 0 1 .621 2.017v2.165A7.777 7.777 0 0 1 45.809 62.3a9.179 9.179 0 0 0-2.255-3.63q-.319-.318-.663-.598zm3.389 8.122v-.979a9.376 9.376 0 0 0-.1-1.343q.345.185.7.339v1.845zm1.742 5.029v-3.55l1.632 1.278zm2.41-3.1l-2.41-1.887V64.61a8.963 8.963 0 0 0 4.82-.02v1.643zm2.41 3.1l-1.627-2.275 1.632-1.278z" class="cls-1" transform="translate(-9.058 -36.954)"/>
            <g id="Grupo_305" transform="translate(17.234 24.254)">
                <path id="Trazado_385" d="M272.284 312.935a.544.544 0 0 0 .544-.544v-.374a.544.544 0 1 0-1.088 0v.374a.544.544 0 0 0 .544.544z" class="cls-1" transform="translate(-259.19 -304.601)"/>
                <path id="Trazado_386" d="M232.591 312.935a.544.544 0 0 0 .544-.544v-.374a.544.544 0 0 0-.544-.544.544.544 0 0 0-.544.544v.374a.544.544 0 0 0 .544.544z" class="cls-1" transform="translate(-223.997 -304.601)"/>
                <path id="Trazado_387" d="M238.983 338.747l-1.023-.489a1.7 1.7 0 0 1-3.071 0l-1.023.488a2.835 2.835 0 0 0 5.117 0z" class="cls-1" transform="translate(-225.61 -328.349)"/>
                <path id="Rect치ngulo_20" d="M0 0H2.861V1.134H0z" class="cls-1" transform="rotate(-135 3.799 .795)"/>
                <path id="Rect치ngulo_21" d="M0 0H2.861V1.134H0z" class="cls-1" transform="rotate(45 2.96 7.147)"/>
                <path id="Trazado_388" d="M182.584 283.6a6.248 6.248 0 0 0-4.893-6.126l-3.146-.713v-.88a7.952 7.952 0 0 0 4.862-6.515 2.017 2.017 0 0 0-.774-1.824 4.325 4.325 0 0 1-1.746-2.8 1.375 1.375 0 0 0-.887-1.136l-.054-.02a1.359 1.359 0 0 0-1.55.441c-2.084 2.683-6.082 3.475-8.279 3.708a2.014 2.014 0 0 0-1.757 2.423 8.108 8.108 0 0 0 2.64 4.46 7.547 7.547 0 0 0 2.09 1.26v.883l-3.146.713a6.249 6.249 0 0 0-4.893 6.126v3.888h21.531V283.6zm-17.114-13.678a.88.88 0 0 1 .768-1.057c2.377-.253 6.713-1.126 9.055-4.141a.228.228 0 0 1 .18-.088.237.237 0 0 1 .082.015l.053.02a.247.247 0 0 1 .154.208 5.445 5.445 0 0 0 2.182 3.563.878.878 0 0 1 .336.794 6.648 6.648 0 0 1-6.462 6.038 6.561 6.561 0 0 1-6.349-5.351zm6.349 6.485a7.312 7.312 0 0 0 1.592-.177v.738a2.435 2.435 0 0 1-3.185 0v-.738a7.289 7.289 0 0 0 1.592.178zm-2.328 1.426a3.571 3.571 0 0 0 4.655 0l2 .452v3.266h-8.489v-3.3zm-3.294.747l.322-.073v4.179h10.757v-4.143l.165.037a5.215 5.215 0 0 1 1.1.382v7.392H165.2v-7.438a5.244 5.244 0 0 1 1-.336zm-4.01 5.02a5.123 5.123 0 0 1 1.875-3.981v6.736h-1.875zm19.263 2.755h-1.776V279.7a5.123 5.123 0 0 1 1.776 3.9z" class="cls-1" transform="translate(-161.053 -262.07)"/>
            </g>
            <g id="Grupo_306" transform="translate(5.023 17.844)">
                <path id="Trazado_389" d="M122.981 248.6a1.138 1.138 0 0 1-1.022-.645l-1.023.488a2.267 2.267 0 0 0 4.091 0l-1.027-.489a1.139 1.139 0 0 1-1.019.646z" class="cls-1" transform="translate(-113.273 -241.874)"/>
                <path id="Rect치ngulo_22" d="M0 0H12.778V1.134H0z" class="cls-1" transform="translate(0 17.914)"/>
                <path id="Trazado_390" d="M161.05 195.465a.628.628 0 0 1 .627.627h1.134a1.761 1.761 0 1 0-3.522 0h1.134a.628.628 0 0 1 .627-.627z" class="cls-1" transform="translate(-147.277 -194.331)"/>
                <path id="Trazado_391" d="M87.6 196.092h1.134a.627.627 0 0 1 1.254 0h1.134a1.761 1.761 0 0 0-3.522 0z" class="cls-1" transform="translate(-83.719 -194.331)"/>
            </g>
            <g id="Grupo_307" transform="translate(35.55 16.386)">
                <path id="Trazado_392" d="M357.663 235.036a2.322 2.322 0 0 0 2.084-1.314l-1.023-.489a1.176 1.176 0 0 1-2.122 0l-1.023.488a2.32 2.32 0 0 0 2.084 1.315z" class="cls-1" transform="translate(-351.838 -227.363)"/>
                <path id="Trazado_393" d="M396.034 182.6a.628.628 0 0 1 .627.627h1.134a1.761 1.761 0 0 0-3.522 0h1.134a.628.628 0 0 1 .627-.627z" class="cls-1" transform="translate(-386.145 -181.467)"/>
                <path id="Trazado_394" d="M324.346 182.6a.628.628 0 0 1 .627.627h1.134a1.761 1.761 0 1 0-3.522 0h1.134a.628.628 0 0 1 .627-.627z" class="cls-1" transform="translate(-322.585 -181.467)"/>
                <path id="Rect치ngulo_23" d="M0 0H1.134V11.636H0z" class="cls-1" transform="translate(5.257 19.237)"/>
            </g>
        </g>
    </g>
</svg>
