<svg xmlns="http://www.w3.org/2000/svg" width="20.885" height="24" viewBox="0 0 20.885 24">
    <g>
        <g>
            <g>
                <g>
                    <path fill="#fff" d="M94.538 74h-6.346a.346.346 0 0 1-.346-.346v-6.923a3.346 3.346 0 0 0-6.692 0v6.923a.346.346 0 0 1-.346.346h-6.462a.346.346 0 0 1-.346-.346V59.231a.346.346 0 0 1 .118-.261l10.154-8.885a.346.346 0 0 1 .457 0l10.038 8.885a.346.346 0 0 1 .117.259v14.425a.346.346 0 0 1-.346.346zm-6-.692h5.654V59.387l-9.692-8.58-9.806 8.581v13.92h5.769v-6.577a4.038 4.038 0 1 1 8.077 0z" transform="translate(-231 -574.656) translate(231 574.656) translate(-74 -50)"/>
                </g>
            </g>
        </g>
    </g>
</svg>
