<svg xmlns="http://www.w3.org/2000/svg" width="56" height="46.744" viewBox="0 0 56 46.744">
    <defs>
        <style>
            .cls-1{fill:#333}
        </style>
    </defs>
    <g id="home-icon" transform="translate(-14 -54)">
        <g id="Grupo_304" transform="translate(14 54)">
            <g id="Grupo_303">
                <g id="Grupo_298" transform="translate(23.719 15.041)">
                    <path id="Trazado_379" d="M223.281 192.562a4.281 4.281 0 1 1 4.281-4.281 4.286 4.286 0 0 1-4.281 4.281zm0-6.942a2.661 2.661 0 1 0 2.661 2.661 2.664 2.664 0 0 0-2.661-2.661z" class="cls-1" transform="translate(-219 -184)"/>
                </g>
                <g id="Grupo_299" transform="translate(39.339)">
                    <path id="Trazado_380" d="M360.595 63.251a.81.81 0 0 1-.317-.065l-5.785-2.462a.81.81 0 0 1-.493-.744v-5.17a.81.81 0 0 1 .81-.81h5.79a.81.81 0 0 1 .81.81v7.631a.81.81 0 0 1-.81.81zm-4.975-3.807l4.165 1.772v-5.6h-4.165z" class="cls-1" transform="translate(-354 -54)"/>
                </g>
                <g id="Grupo_300" transform="translate(8.099 8.099)">
                    <path id="Trazado_381" d="M122.992 162.645H84.81a.81.81 0 0 1-.81-.81v-30.526a.81.81 0 0 1 .549-.767l19.091-6.5a.809.809 0 0 1 .522 0l19.091 6.5a.81.81 0 0 1 .549.767v30.526a.81.81 0 0 1-.81.81zm-37.372-1.62h36.562v-29.136l-18.282-6.223-18.28 6.223z" class="cls-1" transform="translate(-84 -124)"/>
                </g>
                <g id="Grupo_301">
                    <path id="Trazado_382" d="M69.19 72.975a.808.808 0 0 1-.261-.043L42 63.765l-26.929 9.167A.81.81 0 0 1 14 72.166V66.38a.81.81 0 0 1 .493-.745l27.19-11.57a.81.81 0 0 1 .634 0L60.251 61.7l9.256 3.939a.81.81 0 0 1 .493.741v5.785a.81.81 0 0 1-.81.81zm-53.57-6.059v4.118l26.119-8.892a.809.809 0 0 1 .522 0l26.119 8.892v-4.118L42 55.69z" class="cls-1" transform="translate(-14 -54)"/>
                </g>
                <g id="Grupo_302" transform="translate(20.826 27.769)">
                    <path id="Trazado_383" d="M207.537 312.975H194.81a.81.81 0 0 1-.81-.81V294.81a.81.81 0 0 1 .81-.81h12.727a.81.81 0 0 1 .81.81v17.355a.81.81 0 0 1-.81.81zm-11.917-1.62h11.107V295.62H195.62z" class="cls-1" transform="translate(-194 -294)"/>
                </g>
            </g>
        </g>
    </g>
</svg>
