<svg xmlns="http://www.w3.org/2000/svg" width="24" height="24" viewBox="0 0 24 24">
    <defs>
        <style>
            .cls-1{fill:#fff}
        </style>
    </defs>
    <g id="hospital-icon" transform="translate(-19 -19)">
        <g id="Grupo_34" transform="translate(19 19)">
            <g id="Grupo_33">
                <g id="Grupo_30">
                    <path id="Trazado_22" d="M31 43a12 12 0 1 1 8.485-3.515A11.921 11.921 0 0 1 31 43zm0-23.291A11.291 11.291 0 1 0 42.291 31 11.3 11.3 0 0 0 31 19.709z" class="cls-1" transform="translate(-19 -19)"/>
                </g>
                <g id="Grupo_31" transform="translate(2.532 2.532)">
                    <path id="Trazado_23" d="M78.468 87.937a9.468 9.468 0 1 1 9.468-9.468 9.479 9.479 0 0 1-9.468 9.468zm0-18.228a8.759 8.759 0 1 0 8.759 8.759 8.769 8.769 0 0 0-8.759-8.759z" class="cls-1" transform="translate(-69 -69)"/>
                </g>
                <g id="Grupo_32" transform="translate(6.076 6.076)">
                    <path id="Trazado_24" d="M146.638 150.848h-3.428a.354.354 0 0 1-.354-.354v-3.5h-3.5a.354.354 0 0 1-.354-.354v-3.43a.354.354 0 0 1 .354-.354h3.5v-3.5a.354.354 0 0 1 .354-.354h3.427a.354.354 0 0 1 .354.354v3.5h3.5a.354.354 0 0 1 .354.354v3.427a.354.354 0 0 1-.354.354h-3.5v3.5a.354.354 0 0 1-.353.357zm-3.073-.709h2.719v-3.5a.354.354 0 0 1 .354-.354h3.5v-2.719h-3.5a.354.354 0 0 1-.354-.354v-3.5h-2.719v3.5a.354.354 0 0 1-.354.354h-3.5v2.719h3.5a.354.354 0 0 1 .354.354v3.5z" class="cls-1" transform="translate(-139 -139)"/>
                </g>
            </g>
        </g>
    </g>
</svg>
