<svg xmlns="http://www.w3.org/2000/svg" width="24" height="23.622" viewBox="0 0 24 23.622">
    <defs>
        <style>
            .cls-1{fill:#fff}
        </style>
    </defs>
    <g id="news-paper-icon" transform="translate(-26 -34.125)">
        <g id="Grupo_59" transform="translate(26 34.125)">
            <g id="Grupo_58">
                <g id="Grupo_35" transform="translate(19.826)">
                    <path id="Trazado_25" d="M409.652 37.851h-3.13a.527.527 0 0 1-.522-.532v-2.662a.522.522 0 1 1 1.043 0v2.129h2.609a.532.532 0 0 1 0 1.065z" class="cls-1" transform="translate(-406 -34.125)"/>
                </g>
                <g id="Grupo_38">
                    <g id="Grupo_36" transform="translate(2.648)">
                        <path id="Trazado_26" d="M97.586 57.547H96.2a.532.532 0 0 1 0-1.065h.868V37.568l-2.8-2.379H78.8v9.582a.522.522 0 1 1-1.043 0V34.657a.527.527 0 0 1 .522-.532h16.176a.515.515 0 0 1 .334.123l3.13 2.662a.537.537 0 0 1 .188.409v19.7a.527.527 0 0 1-.521.528zm-4 0H77.278a.524.524 0 0 1-.508-.409.536.536 0 0 1 .272-.6 1.329 1.329 0 0 0 .718-1.188v-7.917a.522.522 0 1 1 1.043 0v7.918a2.433 2.433 0 0 1-.276 1.131h15.061a.532.532 0 0 1 0 1.065z" class="cls-1" transform="translate(-76.756 -34.125)"/>
                    </g>
                    <g id="Grupo_37" transform="translate(0 5.323)">
                        <path id="Trazado_27" d="M28.348 152.424a2.375 2.375 0 0 1-2.348-2.4v-5.19a.522.522 0 1 1 1.043 0v5.19a1.319 1.319 0 0 0 1.3 1.331 1.268 1.268 0 0 0 .587-.142 1.329 1.329 0 0 0 .718-1.188V135.19h-2.605v6.987a.522.522 0 1 1-1.043 0v-7.519a.527.527 0 0 1 .522-.532h3.652a.527.527 0 0 1 .522.532v15.371a2.391 2.391 0 0 1-1.29 2.139 2.286 2.286 0 0 1-1.058.256z" class="cls-1" transform="translate(-26 -134.125)"/>
                    </g>
                </g>
                <g id="Grupo_39" transform="translate(5.217 8.517)">
                    <path id="Trazado_28" d="M130.7 195.19h-4.174a.532.532 0 0 1 0-1.065h4.174a.532.532 0 0 1 0 1.065z" class="cls-1" transform="translate(-126 -194.125)"/>
                </g>
                <g id="Grupo_40" transform="translate(10.435 8.517)">
                    <path id="Trazado_29" d="M232.261 195.19h-5.739a.532.532 0 0 1 0-1.065h5.739a.532.532 0 0 1 0 1.065z" class="cls-1" transform="translate(-226 -194.125)"/>
                </g>
                <g id="Grupo_41" transform="translate(17.217 8.517)">
                    <path id="Trazado_30" d="M360.7 195.19h-4.174a.532.532 0 0 1 0-1.065h4.174a.532.532 0 0 1 0 1.065z" class="cls-1" transform="translate(-356 -194.125)"/>
                </g>
                <g id="Grupo_42" transform="translate(5.217 10.646)">
                    <path id="Trazado_31" d="M130.7 235.19h-4.174a.532.532 0 0 1 0-1.065h4.174a.532.532 0 0 1 0 1.065z" class="cls-1" transform="translate(-126 -234.125)"/>
                </g>
                <g id="Grupo_43" transform="translate(10.435 10.646)">
                    <path id="Trazado_32" d="M232.261 235.19h-5.739a.532.532 0 0 1 0-1.065h5.739a.532.532 0 0 1 0 1.065z" class="cls-1" transform="translate(-226 -234.125)"/>
                </g>
                <g id="Grupo_44" transform="translate(17.217 10.646)">
                    <path id="Trazado_33" d="M360.7 235.19h-4.174a.532.532 0 0 1 0-1.065h4.174a.532.532 0 0 1 0 1.065z" class="cls-1" transform="translate(-356 -234.125)"/>
                </g>
                <g id="Grupo_45" transform="translate(5.217 12.776)">
                    <path id="Trazado_34" d="M130.7 275.19h-4.174a.532.532 0 0 1 0-1.065h4.174a.532.532 0 0 1 0 1.065z" class="cls-1" transform="translate(-126 -274.125)"/>
                </g>
                <g id="Grupo_46" transform="translate(10.435 12.776)">
                    <path id="Trazado_35" d="M232.261 275.19h-5.739a.532.532 0 0 1 0-1.065h5.739a.532.532 0 0 1 0 1.065z" class="cls-1" transform="translate(-226 -274.125)"/>
                </g>
                <g id="Grupo_47" transform="translate(17.217 12.776)">
                    <path id="Trazado_36" d="M360.7 275.19h-4.174a.532.532 0 0 1 0-1.065h4.174a.532.532 0 0 1 0 1.065z" class="cls-1" transform="translate(-356 -274.125)"/>
                </g>
                <g id="Grupo_48" transform="translate(5.217 14.905)">
                    <path id="Trazado_37" d="M130.7 315.19h-4.174a.532.532 0 0 1 0-1.065h4.174a.532.532 0 0 1 0 1.065z" class="cls-1" transform="translate(-126 -314.125)"/>
                </g>
                <g id="Grupo_49" transform="translate(10.435 14.905)">
                    <path id="Trazado_38" d="M232.261 315.19h-5.739a.532.532 0 0 1 0-1.065h5.739a.532.532 0 0 1 0 1.065z" class="cls-1" transform="translate(-226 -314.125)"/>
                </g>
                <g id="Grupo_50" transform="translate(17.217 14.905)">
                    <path id="Trazado_39" d="M360.7 315.19h-4.174a.532.532 0 0 1 0-1.065h4.174a.532.532 0 0 1 0 1.065z" class="cls-1" transform="translate(-356 -314.125)"/>
                </g>
                <g id="Grupo_51" transform="translate(5.217 17.034)">
                    <path id="Trazado_40" d="M130.7 355.19h-4.174a.532.532 0 0 1 0-1.065h4.174a.532.532 0 0 1 0 1.065z" class="cls-1" transform="translate(-126 -354.125)"/>
                </g>
                <g id="Grupo_52" transform="translate(10.435 17.034)">
                    <path id="Trazado_41" d="M232.261 355.19h-5.739a.532.532 0 0 1 0-1.065h5.739a.532.532 0 0 1 0 1.065z" class="cls-1" transform="translate(-226 -354.125)"/>
                </g>
                <g id="Grupo_53" transform="translate(17.217 17.034)">
                    <path id="Trazado_42" d="M360.7 355.19h-4.174a.532.532 0 0 1 0-1.065h4.174a.532.532 0 0 1 0 1.065z" class="cls-1" transform="translate(-356 -354.125)"/>
                </g>
                <g id="Grupo_54" transform="translate(5.217 19.164)">
                    <path id="Trazado_43" d="M130.7 395.19h-4.174a.532.532 0 0 1 0-1.065h4.174a.532.532 0 0 1 0 1.065z" class="cls-1" transform="translate(-126 -394.125)"/>
                </g>
                <g id="Grupo_55" transform="translate(10.435 19.164)">
                    <path id="Trazado_44" d="M232.261 395.19h-5.739a.532.532 0 0 1 0-1.065h5.739a.532.532 0 0 1 0 1.065z" class="cls-1" transform="translate(-226 -394.125)"/>
                </g>
                <g id="Grupo_56" transform="translate(17.217 19.164)">
                    <path id="Trazado_45" d="M360.7 395.19h-4.174a.532.532 0 0 1 0-1.065h4.174a.532.532 0 0 1 0 1.065z" class="cls-1" transform="translate(-356 -394.125)"/>
                </g>
                <g id="Grupo_57" transform="translate(5.739 2.129)">
                    <path id="Trazado_46" d="M148.522 78.384h-12a.527.527 0 0 1-.522-.532v-3.195a.527.527 0 0 1 .522-.532h10.957a.532.532 0 0 1 0 1.065h-10.436v2.129H148v-1.065a.522.522 0 1 1 1.043 0v1.6a.527.527 0 0 1-.521.53z" class="cls-1" transform="translate(-136 -74.125)"/>
                </g>
            </g>
        </g>
    </g>
</svg>
