<svg xmlns="http://www.w3.org/2000/svg" width="56" height="50.645" viewBox="0 0 56 50.645">
    <defs>
        <style>
            .cls-1{fill:#333}
        </style>
    </defs>
    <g id="wash-hands" transform="translate(-27.666 -49.499)">
        <g id="Grupo_297" transform="translate(27.666 49.499)">
            <g id="Grupo_296">
                <g id="Grupo_289" transform="translate(24.271 35.933)">
                    <path id="Trazado_368" d="M235.42 347.924a35.219 35.219 0 0 1-8.459-1.458l-.452-.12a1.226 1.226 0 0 1 .616-2.374l.473.126a44.94 44.94 0 0 0 5.647 1.214c3.346.441 4.384-.121 4.675-.383.1-.087.323-.291.213-.99a1.226 1.226 0 1 1 2.423-.383 3.348 3.348 0 0 1-1 3.2 6.142 6.142 0 0 1-4.136 1.168z" class="cls-1" transform="translate(-225.591 -342.521)"/>
                </g>
                <g id="Grupo_290" transform="translate(0 31.891)">
                    <path id="Trazado_369" d="M42.381 326.735H28.892a1.226 1.226 0 0 1-1.226-1.226v-14.716a1.226 1.226 0 0 1 1.226-1.226h13.489a1.226 1.226 0 0 1 1.226 1.226v14.715a1.226 1.226 0 0 1-1.226 1.227zm-12.263-2.453h11.037V312.02H30.119z" class="cls-1" transform="translate(-27.666 -309.567)"/>
                </g>
                <g id="Grupo_291" transform="translate(13.505 30.113)">
                    <path id="Trazado_370" d="M157.343 315.6a18.47 18.47 0 0 1-7.018-1.564 14.479 14.479 0 0 0-5.411-1.283 15.107 15.107 0 0 0-5.443 1.177 1.226 1.226 0 0 1-1.67-1.143V297.7a1.227 1.227 0 0 1 .706-1.111 16.316 16.316 0 0 1 3.55-1.264 16.988 16.988 0 0 1 3.289-.258 42.092 42.092 0 0 1 10.819 1.484c4.05 1.17 6.461 2.819 7.185 4.913 3.088-2.167 7.231-4.247 10.286-4.687a6.655 6.655 0 0 1 .969-.067c2.6 0 5.49 1.234 5.685 3.942.091 1.322-.8 2.8-2.808 4.663a42.9 42.9 0 0 1-6.117 4.542c-4.236 2.669-9.811 5.464-12.716 5.69-.44.034-.88.053-1.306.053zm-12.43-5.3a16.66 16.66 0 0 1 6.287 1.444 15.986 15.986 0 0 0 6.143 1.4c.362 0 .737-.015 1.113-.045 2.055-.16 7.041-2.447 11.6-5.32 5.985-3.771 7.83-6.316 7.785-6.957-.087-1.21-2.032-1.662-3.238-1.662a4.27 4.27 0 0 0-.615.041c-3.283.473-8.262 3.288-11 5.625a1.226 1.226 0 0 1-1.928-1.406 1.536 1.536 0 0 0 .044-.83c-.2-1.372-2.254-2.71-5.626-3.684a39.453 39.453 0 0 0-10.138-1.388 14.864 14.864 0 0 0-2.789.207 12.412 12.412 0 0 0-2.3.767v12.568a15.841 15.841 0 0 1 4.662-.76z" class="cls-1" transform="translate(-137.8 -295.067)"/>
                </g>
                <g id="Grupo_292" transform="translate(28.204 8.584)">
                    <path id="Trazado_371" d="M266.115 140.712a8.449 8.449 0 0 1-8.448-8.448c0-2.876 2.309-5.675 4.543-8.382a38.223 38.223 0 0 0 2.894-3.808 1.226 1.226 0 0 1 1.04-.577 1.226 1.226 0 0 1 1.04.579 39.1 39.1 0 0 0 2.824 3.753c2.235 2.745 4.546 5.583 4.546 8.434a8.451 8.451 0 0 1-8.441 8.448zm.026-17.825c-.643.863-1.349 1.719-2.04 2.557-1.958 2.372-3.982 4.825-3.982 6.821a5.986 5.986 0 0 0 3.2 5.306 5.994 5.994 0 0 0 8.78-5.306c0-1.979-2.031-4.473-4-6.886-.657-.819-1.338-1.655-1.958-2.492z" class="cls-1" transform="translate(-257.667 -119.497)"/>
                </g>
                <g id="Grupo_293" transform="translate(41.128)">
                    <path id="Trazado_372" d="M368.672 63.356a5.617 5.617 0 0 1-5.616-5.616c0-1.921 1.46-3.69 2.871-5.4a22.872 22.872 0 0 0 1.722-2.263 1.226 1.226 0 0 1 1.04-.577 1.226 1.226 0 0 1 1.04.579 23.064 23.064 0 0 0 1.681 2.232c1.412 1.734 2.871 3.526 2.871 5.43a5.617 5.617 0 0 1-5.612 5.616zm.015-10.524c-.284.361-.578.717-.868 1.068-1.136 1.376-2.31 2.8-2.31 3.84a3.159 3.159 0 0 0 1.691 2.8 3.163 3.163 0 0 0 4.632-2.8c0-1.032-1.233-2.546-2.321-3.882-.276-.337-.555-.68-.824-1.026z" class="cls-1" transform="translate(-363.056 -49.499)"/>
                </g>
                <g id="Grupo_294" transform="translate(2.453 18.762)">
                    <path id="Trazado_373" d="M51.345 209.859a3.679 3.679 0 1 1 3.679-3.679 3.683 3.683 0 0 1-3.679 3.679zm0-4.905a1.226 1.226 0 1 0 1.226 1.226 1.228 1.228 0 0 0-1.226-1.226z" class="cls-1" transform="translate(-47.666 -202.501)"/>
                </g>
                <g id="Grupo_295" transform="translate(11.036 6.499)">
                    <path id="Trazado_374" d="M123.8 114.764a6.131 6.131 0 1 1 6.131-6.131 6.138 6.138 0 0 1-6.131 6.131zm0-9.81a3.679 3.679 0 1 0 3.679 3.679 3.683 3.683 0 0 0-3.679-3.679z" class="cls-1" transform="translate(-117.666 -102.501)"/>
                </g>
            </g>
        </g>
    </g>
</svg>
