<svg xmlns="http://www.w3.org/2000/svg" width="56" height="39.9" viewBox="0 0 56 39.9">
    <defs>
        <style>
            .cls-1{fill:#333}
        </style>
    </defs>
    <g id="wear-mask-icon" transform="translate(0 -18.379)">
        <path id="Trazado_375" d="M56 26.373c0-4.1-1.479-6.068-2.721-7a4.707 4.707 0 0 0-4.082-.84c-2.625.748-4.274 3.938-4.961 5.561-.118-.044-.232-.083-.354-.118-1.444-.411-3.036-1.032-4.725-1.689-3.5-1.365-7.486-2.909-11.169-2.909-4.069 0-8.785 1.855-12.574 3.343-1.229.486-2.393.945-3.364 1.269-.092.031-.188.074-.28.114-.687-1.614-2.345-4.812-4.966-5.569a4.7 4.7 0 0 0-4.082.84C1.479 20.3 0 22.278 0 26.373c0 6.3 7.77 18.528 8.1 19.062 1.107 3.268 2.3 6.072 2.931 6.72 3.569 3.613 11.785 6.125 16.938 6.125s13.4-2.52 16.936-6.125c.634-.647 1.877-3.522 3.023-6.812.748-1.138 8.072-12.85 8.072-18.97zm-6.322-6.16a2.94 2.94 0 0 1 2.546.551c1.313.984 2.026 2.975 2.026 5.609 0 3.063-2.161 7.906-4.213 11.812a16.87 16.87 0 0 0 .437-3.032 14.077 14.077 0 0 0-4.716-10.193c.617-1.536 2.056-4.213 3.92-4.747zM1.75 26.373c0-2.625.717-4.624 2.026-5.609a2.936 2.936 0 0 1 2.546-.551c1.859.529 3.294 3.22 3.938 4.76A13.047 13.047 0 0 0 5.6 34.6a20.086 20.086 0 0 0 .564 3.938C4.038 34.567 1.75 29.523 1.75 26.373zm41.921 24.579C40.854 53.835 33.25 56.56 28 56.56c-5.316 0-12.792-2.678-15.689-5.613-.875-.923-4.97-12.25-4.97-16.349 0-3.631 2.625-8.067 5.276-8.956 1.011-.337 2.188-.8 3.452-1.312 3.618-1.422 8.181-3.207 11.931-3.207 3.356 0 7 1.417 10.535 2.791 1.75.669 3.356 1.313 4.883 1.75a3.6 3.6 0 0 1 .814.368.988.988 0 0 0 .114.07c2.31 1.47 4.471 5.709 4.375 9.026-.08 3.985-4.21 14.944-5.05 15.824z" class="cls-1"/>
        <path id="Trazado_376" d="M59.966 72.27a81.58 81.58 0 0 1-9.466 1.19 78.7 78.7 0 0 1-9.467-1.19.876.876 0 0 0-.315 1.724A79.628 79.628 0 0 0 50.5 75.2a79.151 79.151 0 0 0 9.783-1.216.876.876 0 1 0-.315-1.724z" class="cls-1" transform="translate(-22.498 -30.301)"/>
        <path id="Trazado_377" d="M59.966 59.27a81.579 81.579 0 0 1-9.466 1.19 78.7 78.7 0 0 1-9.467-1.19.876.876 0 0 0-.315 1.724A79.625 79.625 0 0 0 50.5 62.2a79.152 79.152 0 0 0 9.783-1.216.876.876 0 1 0-.315-1.724z" class="cls-1" transform="translate(-22.498 -22.988)"/>
        <path id="Trazado_378" d="M59.966 46.27a81.58 81.58 0 0 1-9.466 1.19 78.7 78.7 0 0 1-9.467-1.19.876.876 0 0 0-.315 1.724A79.626 79.626 0 0 0 50.5 49.2a79.151 79.151 0 0 0 9.783-1.216.876.876 0 1 0-.315-1.724z" class="cls-1" transform="translate(-22.498 -15.676)"/>
    </g>
</svg>
